<?xml version="1.0" encoding="iso-8859-1"?>
<!-- Uploaded to: SVG Repo, www.svgrepo.com, Generator: SVG Repo Mixer Tools -->
<svg height="800px" width="800px" version="1.1" id="Layer_1" xmlns="http://www.w3.org/2000/svg" xmlns:xlink="http://www.w3.org/1999/xlink" 
	 viewBox="0 0 512 512" xml:space="preserve">
<path style="fill:#FFF3DC;" d="M287.52,335.749l-28.837,6.581c-15.68,3.579-30.828-4.264-33.835-17.517l0,0
	c-3.007-13.252,7.266-26.897,22.945-30.475l28.837-6.581c15.68-3.579,39.959,1.828,42.966,15.081l0,0
	C322.603,316.089,303.2,332.17,287.52,335.749z"/>
<path style="fill:#E6CFA8;" d="M305.126,318.202l-28.837,6.581c-15.68,3.579-30.829-4.264-33.835-17.517l0,0
	c-0.88-3.878-0.615-7.788,0.581-11.47c-12.933,4.995-20.877,17.159-18.186,29.017c3.007,13.252,18.156,21.095,33.835,17.517
	l28.837-6.581c11.844-2.703,25.805-12.539,30.634-22.902C313.883,315.343,309.369,317.233,305.126,318.202z"/>
<path style="fill:#FFF3DC;" d="M215.422,121.172l-6.853,27.379c-3.726,14.888,3.396,29.513,15.909,32.669l0,0
	c12.513,3.155,25.676-6.356,29.403-21.243l6.854-27.379c3.726-14.888-0.891-38.175-13.404-41.33l0,0
	C234.818,88.112,219.149,106.284,215.422,121.172z"/>
<path style="fill:#E6CFA8;" d="M245.425,160.272L245.425,160.272c-12.513-3.156-19.635-17.781-15.909-32.669l6.854-27.379
	c0.693-2.768,1.799-5.649,3.22-8.485c-10.545,3.498-21.184,17.512-24.168,29.433l-6.853,27.379
	c-3.726,14.888,3.396,29.513,15.909,32.669l0,0c12.34,3.112,25.308-6.101,29.237-20.637
	C250.992,161.046,248.193,160.97,245.425,160.272z"/>
<path style="fill:#FFF3DC;" d="M327.153,32.883l-5.632,22.5c-3.063,12.234,2.791,24.253,13.073,26.846l0,0
	c10.282,2.592,21.1-5.222,24.162-17.456l5.632-22.5c3.063-12.234-0.732-31.371-11.014-33.963l0,0
	C343.092,5.716,330.216,20.649,327.153,32.883z"/>
<path style="fill:#E6CFA8;" d="M353.603,55.999L353.603,55.999c-10.282-2.592-16.135-14.612-13.073-26.846l4.975-19.876
	c-8.15,3.622-16.042,14.379-18.352,23.605l-5.632,22.5c-3.063,12.234,2.791,24.253,13.073,26.846l0,0
	c10.282,2.592,21.1-5.222,24.162-17.456l2.159-8.625C358.521,56.627,356.048,56.616,353.603,55.999z"/>
<path style="fill:#FFF3DC;" d="M364,326.933l-20.512,13.826c-11.153,7.518-15.084,21.223-8.779,30.612l0,0
	c6.305,9.389,20.458,10.907,31.611,3.389l20.512-13.826c11.153-7.518,21.792-25.399,15.487-34.789l0,0
	C396.014,316.757,375.153,319.416,364,326.933z"/>
<path style="fill:#E6CFA8;" d="M385.721,350.572c-11.153,7.518-25.306,6.001-31.611-3.389c-2.321-3.457-3.244-7.499-2.941-11.602
	l-7.682,5.177c-11.153,7.518-15.084,21.223-8.779,30.612c6.305,9.389,20.458,10.907,31.611,3.389l20.512-13.826
	c7.132-4.808,14.048-13.853,16.462-22.206L385.721,350.572z"/>
<path style="fill:#FFF3DC;" d="M403.711,201.984l-24.707,6.953c-13.433,3.78-26.894-2.358-30.064-13.71l0,0
	c-3.17-11.352,5.149-23.619,18.583-27.399l24.707-6.953c13.433-3.78,34.701-0.148,37.871,11.203l0,0
	C433.271,183.43,417.144,198.204,403.711,201.984z"/>
<path style="fill:#E6CFA8;" d="M419.519,185.815l-24.706,6.953c-13.433,3.78-26.894-2.358-30.064-13.71
	c-0.964-3.452-0.86-6.989,0.122-10.347c-11.852,4.555-18.888,15.932-15.932,26.515l0,0c3.17,11.352,16.631,17.49,30.064,13.71
	l24.706-6.953c9.837-2.768,21.109-11.431,25.2-20.328C425.815,183.502,422.597,184.949,419.519,185.815z"/>
<path style="fill:#FFF3DC;" d="M73.053,255.072l-0.309,30.036c-0.168,16.332,10.822,29.686,24.546,29.828l0,0
	c13.724,0.142,24.986-12.982,25.154-29.314l0.309-30.036c0.168-16.332-10.376-39.271-24.1-39.414l0,0
	C84.928,216.032,73.22,238.741,73.053,255.072z"/>
<path style="fill:#E6CFA8;" d="M117.747,284.108L117.747,284.108c-13.724-0.142-24.714-13.496-24.546-29.828l0.309-30.036
	c0.024-2.342,0.293-4.816,0.763-7.334c-11.747,3.985-21.071,23.601-21.221,38.162l-0.309,30.036
	c-0.168,16.332,10.822,29.686,24.546,29.828c13.724,0.142,24.986-12.982,25.154-29.314l0.021-2.003
	C120.934,283.952,119.359,284.124,117.747,284.108z"/>
<g>
	<path style="fill:#7C9E2F;" d="M97.748,388.042c-4.465,0-8.084-3.618-8.084-8.084v-92.904c0-4.465,3.618-8.084,8.084-8.084
		s8.084,3.618,8.084,8.084v92.904C105.832,384.423,102.214,388.042,97.748,388.042z"/>
	<path style="fill:#7C9E2F;" d="M154.378,346.367c-3.733,0-7.089-2.602-7.898-6.401c-0.931-4.368,1.855-8.661,6.221-9.591
		c2.411-0.514,80.151-17.36,100.869-20.601c4.417-0.7,8.546,2.326,9.237,6.737c0.69,4.411-2.326,8.546-6.738,9.237
		c-20.284,3.172-99.412,20.315-99.997,20.439C155.504,346.308,154.936,346.367,154.378,346.367z"/>
	<path style="fill:#7C9E2F;" d="M213.467,261.721c-0.25,0-0.503-0.012-0.755-0.035c-4.445-0.412-7.716-4.35-7.303-8.795
		c0.195-2.118,7.882-73.135,15.903-94.579c1.564-4.181,6.221-6.305,10.404-4.739c4.181,1.564,6.303,6.222,4.739,10.404
		c-7.266,19.428-14.901,89.907-14.947,90.406C221.119,258.575,217.596,261.721,213.467,261.721z"/>
	<path style="fill:#7C9E2F;" d="M316.912,159.434c-0.566,0-1.14-0.06-1.715-0.184c-4.365-0.942-7.138-5.244-6.196-9.609
		c0.52-2.41,16.62-75.251,23.114-93.193c1.519-4.196,6.15-6.375,10.353-4.849c4.198,1.519,6.37,6.154,4.849,10.353
		c-6.126,16.926-22.387,90.523-22.512,91.103C323.987,156.843,320.636,159.434,316.912,159.434z"/>
	<path style="fill:#7C9E2F;" d="M277.306,219.921c-3.789,0-7.169-2.675-7.926-6.532c-0.858-4.382,1.999-8.63,6.38-9.488
		c0.484-0.095,65.482-13.212,91.654-22.488c4.215-1.489,8.828,0.713,10.322,4.919c1.491,4.209-0.712,8.829-4.919,10.322
		c-27.302,9.676-91.926,22.719-93.95,23.115C278.343,219.872,277.822,219.921,277.306,219.921z"/>
	<path style="fill:#7C9E2F;" d="M282.942,420.162c-2.453,0-4.875-1.112-6.465-3.222c-2.685-3.567-1.971-8.636,1.597-11.321
		l70.345-52.87c3.568-2.685,8.635-1.97,11.321,1.597c2.685,3.567,1.971,8.636-1.597,11.321l-70.345,52.87
		C286.341,419.633,284.634,420.162,282.942,420.162z"/>
	<path style="fill:#7C9E2F;" d="M271.244,470.503c-0.713,0-1.436-0.095-2.156-0.294l-82.065-22.658
		c-4.304-1.188-6.829-5.641-5.641-9.944c1.188-4.304,5.644-6.831,9.944-5.641l82.065,22.658c4.304,1.188,6.829,5.641,5.641,9.944
		C278.043,468.153,274.789,470.503,271.244,470.503z"/>
	<path style="fill:#7C9E2F;" d="M440.864,444.633c-0.665,0-1.339-0.084-2.012-0.256l-90.575-23.529
		c-4.325-1.109-6.933-5.514-5.823-9.838c1.109-4.324,5.51-6.934,9.838-5.823l90.575,23.529c4.325,1.109,6.933,5.514,5.823,9.838
		C447.753,442.206,444.467,444.633,440.864,444.633z"/>
</g>
<path style="fill:#A9CF54;" d="M497.944,403.229v0.28c-0.162,5.379-4.7,9.033-10.068,9.291
	c-66.592,3.222-123.182,8.547-171.709,15.133c-165.91,22.518-237.6,59.769-292.562,78.438c-1.876,0.636-3.804,0.949-5.702,0.949
	c-5.702,0-11.21-2.749-14.648-7.6c-6.963-9.82-2.166-22.668,8.839-27.496c23.52-10.315,46.986-19.348,70.182-27.249
	c188.826-64.34,360.351-53.82,406.603-51.319C493.978,393.938,497.944,398.142,497.944,403.229z"/>
<path style="fill:#92B83D;" d="M316.168,427.935c-165.91,22.518-237.6,59.769-292.562,78.438c-1.876,0.636-3.804,0.949-5.702,0.949
	c-5.702,0-11.21-2.749-14.648-7.6c-6.963-9.82-2.166-22.668,8.839-27.496c23.52-10.315,46.986-19.348,70.182-27.249
	c11.286,6.574,26.689,9.539,47.611,4.419C179.308,437.302,248.444,426.976,316.168,427.935z"/>
<path style="fill:#A9CF54;" d="M512,12.261C512,5.49,506.51,0,499.739,0c-2.408,0-4.649,0.704-6.543,1.905l0,0
	c-0.001,0-0.001,0-0.001,0c-0.231,0.146-0.455,0.3-0.674,0.461C192.668,206.284,8.105,475.296,8.105,475.296l0.014,0.016
	C3.195,479.04,0,484.931,0,491.582C0,502.858,9.142,512,20.418,512c5.578,0,10.628-2.242,14.313-5.867l0.003,0.003
	c0.004-0.005,0.008-0.011,0.013-0.017c1.467-1.445,2.714-3.11,3.692-4.942C267.008,195.605,505.174,23.242,505.174,23.242
	l-0.001-0.001C509.214,21.235,512,17.079,512,12.261z"/>
<path style="fill:#92B83D;" d="M16.202,495.253l-0.014-0.016c0,0,190.835-291.566,484.023-495.214
	C500.055,0.018,499.899,0,499.739,0c-2.408,0-4.649,0.704-6.543,1.905c-0.001,0-0.001,0-0.001,0c-0.231,0.146-0.455,0.3-0.674,0.461
	C192.668,206.284,8.105,475.296,8.105,475.296l0.014,0.016C3.195,479.04,0,484.931,0,491.582c0,6.771,3.309,12.754,8.384,16.469
	C9.282,502.844,12.156,498.317,16.202,495.253z"/>
</svg>