<!DOCTYPE svg PUBLIC "-//W3C//DTD SVG 1.1//EN" "http://www.w3.org/Graphics/SVG/1.1/DTD/svg11.dtd">
<!-- Uploaded to: SVG Repo, www.svgrepo.com, Transformed by: SVG Repo Mixer Tools -->
<svg xmlns="http://www.w3.org/2000/svg" xmlns:xlink="http://www.w3.org/1999/xlink" version="1.1" id="Capa_1" viewBox="0 0 470 470" xml:space="preserve" width="800px" height="800px" fill="#000000">
<g id="SVGRepo_bgCarrier" stroke-width="0"/>
<g id="SVGRepo_tracerCarrier" stroke-linecap="round" stroke-linejoin="round"/>
<g id="SVGRepo_iconCarrier"> <g> <path style="fill:#3ca1af;" d="M112.5,191c-16.5,0-30,13.5-30,30v98h188.373V191H112.5z"/> <path style="fill:#3ca1af;" d="M239.76,191h-9.26c-64.9,0-118,53.1-118,118v50h192.26L239.76,191z"/> <path style="fill:#3ca1af;" d="M112.5,309v50h-60l30-67.83C89.9,301.11,98.64,309,112.5,309z"/> <path style="fill:#3ca1af;" d="M82.5,291.17V359h-45V251.28C61.14,251.28,69.88,274.21,82.5,291.17z"/> <path style="fill:#3ca1af;" d="M269.76,191.99c-5-0.65-10.09-0.99-15.26-0.99h-14.74v103c0,35.84,29.16,65,65,65h30L269.76,191.99z "/> <path style="fill:#d1ebd0;" d="M402.5,309c0-64.9-53.1-118-118-118h-14.74v0.99L372.5,359h60v-20 C432.5,322.43,419.07,309,402.5,309z"/> <path style="fill:#3ca1af;" d="M372.5,309v50h-37.74c-35.84,0-65-29.16-65-65v-45v-57.01C327.52,199.53,372.5,249.27,372.5,309z"/> <circle style="fill:#FFFFFF;" cx="334.757" cy="294" r="15"/> <path style="fill:#FDCE6E;" d="M407.5,354l-51.667,65h30c16.5,0,34.269-12.807,39.487-28.46L437.5,354H407.5z"/> <path style="fill:#FDFA7B;" d="M32.5,354l12.18,36.54C49.898,406.193,67.667,419,84.167,419h271.667 c16.5,0,34.269-12.807,39.487-28.46L407.5,354H32.5z"/> <path style="fill:#FEFDCA;" d="M447.5,339h-425c-8.284,0-15,6.716-15,15s6.716,15,15,15h425c8.284,0,15-6.716,15-15 S455.784,339,447.5,339z"/> <path d="M334.757,316.5c12.406,0,22.5-10.093,22.5-22.5s-10.094-22.5-22.5-22.5s-22.5,10.093-22.5,22.5 S322.351,316.5,334.757,316.5z M334.757,286.5c4.136,0,7.5,3.364,7.5,7.5s-3.364,7.5-7.5,7.5s-7.5-3.364-7.5-7.5 S330.621,286.5,334.757,286.5z"/> <path d="M210.257,279c0,12.407,10.093,22.5,22.5,22.5c4.143,0,7.5-3.358,7.5-7.5s-3.357-7.5-7.5-7.5c-4.136,0-7.5-3.364-7.5-7.5 s3.364-7.5,7.5-7.5c4.143,0,7.5-3.358,7.5-7.5s-3.357-7.5-7.5-7.5C220.35,256.5,210.257,266.593,210.257,279z"/> <path d="M187.757,256.5c4.142,0,7.5-3.358,7.5-7.5s-3.358-7.5-7.5-7.5c-12.407,0-22.5,10.093-22.5,22.5s10.093,22.5,22.5,22.5 c4.142,0,7.5-3.358,7.5-7.5s-3.358-7.5-7.5-7.5c-4.136,0-7.5-3.364-7.5-7.5S183.621,256.5,187.757,256.5z"/> <path d="M447.5,331.5h-8.263c-3.003-14.731-14.662-26.352-29.418-29.283C406.282,236.159,351.425,183.5,284.5,183.5h-54h-118 C91.822,183.5,75,200.322,75,221v45.681c-8.589-12.051-19.348-22.899-37.5-22.899c-4.142,0-7.5,3.358-7.5,7.5V331.5h-7.5 C10.093,331.5,0,341.593,0,354s10.093,22.5,22.5,22.5h9.594l5.47,16.411c6.278,18.835,26.749,33.589,46.602,33.589h301.667 c19.854,0,40.324-14.754,46.603-33.589l5.47-16.411h9.594c12.406,0,22.5-10.093,22.5-22.5S459.906,331.5,447.5,331.5z M395,309 c0,4.142,3.357,7.5,7.5,7.5c9.777,0,18.114,6.271,21.21,15H291.214c-9.019-10.445-13.957-23.642-13.957-37.5v-45 c0-4.142-3.357-7.5-7.5-7.5s-7.5,3.358-7.5,7.5v45c0,13.388,3.665,26.278,10.481,37.5H120V309c0-60.93,49.57-110.5,110.5-110.5h54 C345.43,198.5,395,248.07,395,309z M112.5,198.5h58.549c-36.92,19.944-62.764,57.852-65.751,101.933 c-6.115-1.905-10.89-6.227-15.298-11.796V221C90,208.593,100.093,198.5,112.5,198.5z M45,259.936 c10.063,3.286,16.486,13.171,23.711,24.291c8.685,13.368,18.4,28.303,36.289,31.599V331.5H45V259.936z M447.5,361.5h-14.844 c-0.024,0-335.156,0-335.156,0c-4.142,0-7.5,3.358-7.5,7.5s3.358,7.5,7.5,7.5h324.594l-3.889,11.668 c-4.216,12.647-19.04,23.332-32.372,23.332H84.167c-13.332,0-28.156-10.685-32.372-23.332L47.906,376.5H67.5 c4.142,0,7.5-3.358,7.5-7.5s-3.358-7.5-7.5-7.5H37.369c-0.027,0-14.869,0-14.869,0c-4.136,0-7.5-3.364-7.5-7.5s3.364-7.5,7.5-7.5 h425c4.136,0,7.5,3.364,7.5,7.5S451.636,361.5,447.5,361.5z"/> <path style="fill:#CCECFF;" d="M210.001,133.501c0-11.837,3.051-17.432,6.584-23.909c3.944-7.232,8.416-15.429,8.416-31.091 c0-15.631-4.454-23.825-8.394-31.046c-1.265-2.354-3.75-3.955-6.609-3.955c-4.142,0-7.5,3.358-7.5,7.5 c0,1.307,0.336,2.535,0.924,3.605c3.531,6.473,6.579,12.066,6.579,23.896c0,11.837-3.051,17.432-6.584,23.909 c-3.944,7.232-8.416,15.429-8.416,31.091c0,15.662,4.471,23.858,8.415,31.09c1.361,2.496,3.935,3.91,6.591,3.91 c1.213,0,2.444-0.295,3.584-0.917c3.637-1.983,4.977-6.539,2.993-10.175C213.052,150.931,210.001,145.338,210.001,133.501z"/> <path style="fill:#CCECFF;" d="M260.001,133.501c0-11.837,3.051-17.432,6.584-23.909c3.944-7.232,8.416-15.429,8.416-31.091 c0-15.631-4.454-23.825-8.394-31.046c-1.265-2.354-3.75-3.955-6.609-3.955c-4.142,0-7.5,3.358-7.5,7.5 c0,1.307,0.336,2.535,0.924,3.605c3.531,6.473,6.579,12.066,6.579,23.896c0,11.837-3.051,17.432-6.584,23.909 c-3.944,7.232-8.416,15.429-8.416,31.091c0,15.662,4.471,23.858,8.415,31.09c1.361,2.496,3.935,3.91,6.591,3.91 c1.213,0,2.444-0.295,3.584-0.917c3.637-1.983,4.977-6.539,2.993-10.175C263.052,150.931,260.001,145.338,260.001,133.501z"/> </g> </g>
</svg>