<?xml version="1.0" encoding="utf-8"?>
<!-- Uploaded to: SVG Repo, www.svgrepo.com, Generator: SVG Repo Mixer Tools -->
<svg width="800px" height="800px" viewBox="0 0 1024 1024" class="icon"  version="1.1" xmlns="http://www.w3.org/2000/svg"><path d="M517.800604 48.725076c-197.993958 0-358.864048 146.94864-358.864048 328.700906 0 181.752266 160.870091 328.700906 358.864048 328.700906 197.993958 0 358.864048-146.94864 358.864049-328.700906C876.664653 196.44713 715.794562 48.725076 517.800604 48.725076z" fill="#148d13" /><path d="M517.800604 60.326284c-30.163142-1.546828-149.268882 12.374622-240.531722 87.39577-44.858006 36.350453-105.957704 128.386707-109.051359 235.117825-4.640483 219.649547 198.767372 283.8429 198.767371 283.8429S308.978852 653.534743 247.10574 573.873112c-54.912387-70.380665-61.099698-237.438066 49.49849-366.598188C401.015106 85.848943 517.800604 60.326284 517.800604 60.326284z" fill="#4dba32" /><path d="M622.984894 951.299094c-16.241692 51.818731-164.73716 41.76435-154.682779 1.546827 24.749245-98.223565 58.006042-208.048338 44.858006-256-4.640483-18.561934-46.404834-22.429003-109.05136-26.296072-37.897281-2.320242-104.410876-34.030211-133.02719-88.169184-6.960725-13.148036 42.537764 18.561934 80.435045 41.76435 37.897281 22.429003 80.435045 32.483384 148.495469 34.803625 3.867069 0-42.537764-10.054381-85.075529-28.616314-42.537764-18.561934-67.287009-65.740181-62.646526-84.302115 2.320242-10.054381 18.561934 23.975831 75.021148 64.193354 35.577039 24.749245 103.637462 47.178248 126.839879 38.670695 84.302115-31.70997 105.18429-139.987915 114.465257-118.332326 24.749245 61.873112-62.646526 112.145015-72.700906 119.10574-8.507553 6.187311 37.123867 3.867069 106.731118-28.616314 23.975831-11.601208 105.957704-74.247734 92.036253-51.818732C728.942598 673.643505 599.782477 657.401813 581.993958 690.65861 548.73716 754.07855 628.398792 935.830816 622.984894 951.299094z" fill="#824522" /></svg>