<!DOCTYPE svg PUBLIC "-//W3C//DTD SVG 1.1//EN" "http://www.w3.org/Graphics/SVG/1.1/DTD/svg11.dtd">
<!-- Uploaded to: SVG Repo, www.svgrepo.com, Transformed by: SVG Repo Mixer Tools -->
<svg height="800px" width="800px" version="1.1" id="Layer_1" xmlns="http://www.w3.org/2000/svg" xmlns:xlink="http://www.w3.org/1999/xlink" viewBox="0 0 512 512" xml:space="preserve" fill="#000000">
<g id="SVGRepo_bgCarrier" stroke-width="0"/>
<g id="SVGRepo_tracerCarrier" stroke-linecap="round" stroke-linejoin="round"/>
<g id="SVGRepo_iconCarrier"> <path style="fill:#B4CBDC;" d="M196.749,306.744c-19.5,21.5-48,32-48,32l-32-40l16-8L196.749,306.744z"/> <path style="fill:#7DA0BE;" d="M308.749,204.744c0,0-22.5-23.625-48-42c0,0-16,16-48,30l24,18L308.749,204.744z"/> <path style="fill:#EBF5FA;" d="M500.749,242.744c-20,6-32,32-32,32h32c-18.667,15.334-85.333,48-160,48s-142.667,5.334-216-32 c-55.831-28.424-55,32-120,32c0,0,16-41,16-64s-16-64-16-64c65,0,63,58,120,32s197-32,224-32S474.749,229.744,500.749,242.744z"/> <path style="fill:#CFE0EB;" d="M468.749,274.744c0,0,12-26,32-32c-12.725-6.363-42.944-17.987-73.643-28.207 c-40.253,48.484-27.694,82.08-16.146,99.193c43.381-10.808,77.32-28.744,89.789-38.986H468.749z"/> <path style="fill:#96BEE1;" d="M348.749,194.744c-27,0-167,6-224,32s-55-32-120-32c0,0,16,41,16,64c0,0.826-0.063,1.723-0.104,2.594 c99.936,16.699,152.104-29.841,312.104-29.841c28.439,0,48.376,5.542,69.323,14.608l14.826,6.784 c3.835,1.858,7.768,3.813,11.852,5.854c32,16,48-16,72-16C474.749,229.744,375.749,194.744,348.749,194.744z"/> <g> <path style="fill:#7DA0BE;" d="M78.749,295.744c-6.976-5.212-23-22.945-23-36c0-13.553,14.934-28.91,22-34 c-19.25-15-27.825-31-73-31c0,0,16,41.641,16,65s-16,65-16,65C49.054,324.744,58.749,307.744,78.749,295.744z"/> <path style="fill:#7DA0BE;" d="M288,196c0,0,1.5-23.5-24-48l-48,40l16,16"/> </g> <g> <path style="fill:#B4CBDC;" d="M232,324v40c0,0,35-6.5,40-40"/> <path style="fill:#B4CBDC;" d="M416,292c0,0-35-24-64-24s1.685,35.089,8,40c4.5,3.5,48,8,48,8"/> </g> <path d="M511.532,273.304C510.393,270.122,507.378,268,504,268h-17.799c4.985-6.733,12.028-13.916,20.098-16.337 c0.039-0.012,0.075-0.028,0.113-0.04c0.136-0.043,0.269-0.094,0.402-0.144c0.117-0.044,0.234-0.086,0.348-0.135 c0.119-0.051,0.234-0.109,0.352-0.167c0.12-0.059,0.242-0.115,0.358-0.18c0.106-0.059,0.208-0.124,0.311-0.188 c0.119-0.072,0.238-0.143,0.352-0.221c0.103-0.071,0.201-0.149,0.3-0.225c0.105-0.08,0.212-0.158,0.313-0.242 c0.104-0.088,0.202-0.184,0.301-0.275c0.089-0.084,0.18-0.164,0.265-0.25c0.098-0.1,0.19-0.208,0.283-0.314 c0.078-0.089,0.159-0.176,0.233-0.268c0.083-0.105,0.161-0.216,0.24-0.325c0.076-0.104,0.153-0.209,0.224-0.317 c0.066-0.102,0.127-0.209,0.189-0.315c0.074-0.124,0.147-0.249,0.213-0.378c0.019-0.035,0.04-0.066,0.058-0.102 c0.036-0.072,0.063-0.146,0.096-0.22c0.062-0.132,0.122-0.265,0.175-0.4c0.047-0.116,0.088-0.232,0.128-0.351 c0.044-0.128,0.087-0.256,0.125-0.387c0.037-0.125,0.068-0.251,0.098-0.377c0.03-0.127,0.058-0.254,0.082-0.382 c0.024-0.129,0.044-0.258,0.062-0.388c0.018-0.128,0.033-0.257,0.044-0.387c0.011-0.129,0.018-0.258,0.023-0.388 c0.005-0.131,0.007-0.263,0.006-0.395c-0.001-0.129-0.007-0.258-0.015-0.386c-0.008-0.131-0.018-0.262-0.033-0.394 c-0.015-0.133-0.035-0.265-0.056-0.397c-0.02-0.123-0.041-0.248-0.067-0.372c-0.03-0.142-0.066-0.28-0.103-0.42 c-0.021-0.078-0.035-0.157-0.058-0.235c-0.011-0.038-0.028-0.073-0.04-0.111c-0.043-0.137-0.094-0.271-0.144-0.404 c-0.044-0.117-0.086-0.234-0.135-0.348c-0.05-0.117-0.107-0.23-0.163-0.345c-0.06-0.124-0.119-0.249-0.185-0.368 c-0.055-0.1-0.116-0.193-0.175-0.291c-0.077-0.125-0.152-0.253-0.235-0.373c-0.063-0.093-0.134-0.181-0.202-0.271 c-0.087-0.116-0.172-0.233-0.266-0.344c-0.078-0.093-0.163-0.179-0.245-0.267c-0.093-0.102-0.184-0.205-0.282-0.301 c-0.087-0.085-0.182-0.165-0.274-0.247c-0.103-0.091-0.204-0.185-0.311-0.271c-0.09-0.072-0.187-0.139-0.281-0.207 c-0.12-0.088-0.238-0.176-0.363-0.257c-0.088-0.058-0.181-0.11-0.272-0.164c-0.14-0.083-0.28-0.165-0.424-0.239 c-0.03-0.016-0.057-0.035-0.088-0.05c-9.091-4.546-27.421-11.931-48.631-19.597c-0.16-0.064-0.322-0.123-0.487-0.176 C419.409,202.979,370.792,188,352,188c-8.442,0-29.605,0.619-56.3,2.42c-1.099-9.504-5.921-28.746-26.158-48.188 c-2.938-2.824-7.532-2.987-10.664-0.377l-48,40c-1.727,1.438-2.769,3.538-2.87,5.783c-0.102,2.245,0.746,4.43,2.335,6.02 l4.923,4.923c-34.847,4.956-68.496,12.065-90.586,22.142c-18.914,8.628-29.592,6.974-39.869,0.886 c-0.408-0.307-0.843-0.571-1.297-0.793c-3.654-2.299-7.298-5.126-11.288-8.224C58.119,201.635,40.56,188,8,188 c-2.642,0-5.114,1.305-6.605,3.486c-1.491,2.182-1.808,4.959-0.848,7.421C0.702,199.304,16,238.783,16,260 c0,21.217-15.298,60.696-15.453,61.093c-0.96,2.462-0.643,5.239,0.848,7.421C2.886,330.695,5.358,332,8,332 c32.485,0,50.249-14.048,64.521-25.336c3.167-2.504,6.089-4.812,8.933-6.813c2.013-0.375,3.85-1.511,5.074-3.25 c7.431-4.206,15.008-5.741,25.769-2.479c0.038,0.136,0.068,0.272,0.114,0.408l16,48c1.099,3.297,4.18,5.47,7.584,5.47 c0.322,0,0.647-0.019,0.973-0.059c0.958-0.117,23.701-3.13,44.958-26.566c0.102-0.111,0.19-0.23,0.284-0.348 c14.007,3.619,27.909,6.098,41.79,7.784V364c0,2.378,1.058,4.632,2.886,6.151c1.448,1.204,3.261,1.849,5.114,1.849 c0.486,0,0.975-0.044,1.461-0.135c1.553-0.288,35.894-7.047,44.975-39.718c5.512,0.083,11.038,0.116,16.583,0.116 c8.015,0,16.081-0.065,24.191-0.131C327.302,332.067,335.669,332,344,332c78.132,0,146.078-34.212,165.078-49.818 C511.688,280.037,512.671,276.484,511.532,273.304z M263.411,158.904c12.417,13.939,15.571,26.521,16.354,32.688 c-14.102,1.123-29.214,2.561-44.479,4.381l-7.435-7.436L263.411,158.904z M79.93,237.18c12.559,6.502,27.967,8.785,51.39-1.901 C187.247,209.768,328.361,204,352,204c13.403,0,48.258,10.012,81.55,21.287c-10.026,5.746-17.77,12.814-23.168,18.713 c-18.496-11.633-51.064-19.162-90.058-20.744c-49.386-1.99-108.267,5.256-170.291,20.989c-51.617,13.094-75.204,4.226-80.443,1.708 C72.937,241.923,77.071,238.951,79.93,237.18z M62.597,294.114c-11.487,9.085-23.307,18.432-42.915,21.121 C24.591,300.911,32,276.553,32,260c0-16.564-7.419-40.946-12.329-55.266c19.698,2.597,31.382,11.672,42.743,20.493 c1.063,0.825,2.128,1.652,3.201,2.474C57.535,234.061,48,244.784,48,260c0,14.995,9.259,25.623,17.261,32.016 C64.37,292.713,63.482,293.414,62.597,294.114z M141.242,330.429l-9.181-27.542c11.019,5.207,21.918,9.506,32.733,13.047 C155.61,324.389,146.854,328.498,141.242,330.429z M240,352.961v-22.535c7.219,0.587,14.441,0.999,21.679,1.279 C256.936,343.334,247.309,349.676,240,352.961z M344,316c-8.395,0-16.795,0.067-24.919,0.134 c-15.736,0.126-31.256,0.249-46.662-0.119c-0.071-0.003-0.141-0.003-0.211-0.005c-46.987-1.135-92.902-6.868-140.579-31.139 c-23.837-12.137-39.49-9.566-52.371-2.488c-5.486-3.538-14.625-10.954-15.218-21.324c5.869,2.629,17.39,6.258,36.287,6.258 c13.755-0.001,31.42-1.926,53.639-7.562c60.548-15.359,117.85-22.447,165.709-20.512c34.947,1.417,64.784,7.929,80.989,17.563 c-0.437,1.004-0.665,2.09-0.665,3.193c0,4.26,0.862,9.358,2.227,14.718C388.661,267.768,369.572,260,352,260 c-12.959,0-17.707,5.911-19.408,10.87c-2.397,6.988,0.167,15.759,7.839,26.813c4.938,7.115,11.331,14.044,14.658,16.631 c0.412,0.32,0.987,0.768,2.245,1.326C352.931,315.869,348.486,316,344,316z M409.006,308.07c-0.062-0.008-0.121-0.021-0.183-0.028 c-17.965-1.858-39.603-4.901-44.321-6.699c-1.766-1.555-6.352-6.317-10.511-12.188c-4.949-6.986-6.157-11.086-6.261-12.645 c0.608-0.21,1.892-0.51,4.27-0.51c23.249,0,51.924,17.695,58.208,21.764c1.406,3.313,2.809,6.366,4.105,8.994 C412.563,307.209,410.791,307.645,409.006,308.07z M464.736,272.647c-1.143,2.478-0.945,5.366,0.525,7.664S469.272,284,472,284 h3.545c-12.002,6.057-27.552,12.66-45.555,18.291c-5.036-9.493-12.844-28.968-13.877-40.026c4.06-5.714,17.658-22.728,39.591-29.208 c11.437,4.152,21.966,8.206,30.489,11.744C472.684,255.711,465.15,271.752,464.736,272.647z"/> <path d="M447.999,252.004c0,2.1,0.85,4.16,2.34,5.65c1.49,1.489,3.55,2.34,5.66,2.34c2.11,0,4.17-0.851,5.66-2.34 c1.49-1.48,2.34-3.551,2.34-5.65c0-2.11-0.85-4.17-2.34-5.66s-3.55-2.35-5.66-2.35c-2.1,0-4.16,0.859-5.66,2.35 C448.849,247.834,447.999,249.894,447.999,252.004z"/> </g>
</svg>