<?xml version="1.0" ?>
<!-- Uploaded to: SVG Repo, www.svgrepo.com, Generator: SVG Repo Mixer Tools -->
<svg width="800px" height="800px" viewBox="0 0 64 64" xmlns="http://www.w3.org/2000/svg">
<defs>
<style>.cls-1{fill:#748a95;}.cls-2{fill:#f6e782;}.cls-3{fill:#ebb87f;}.cls-4{fill:#efc89d;}.cls-5{fill:#f0f4f7;}</style>
</defs>
<g id="Viking">
<path class="cls-1" d="M24.35,13.42S21.9,11,20,8.79c-1.07-1.23-2-1-2.07.61-.19,6.63,2.44,10,2.44,10l4.17-3Z" id="path30828-3"/>
<path class="cls-1" d="M39.65,13.42S42.1,11,44,8.79c1.07-1.23,2-1,2.07.61.19,6.63-2.44,10-2.44,10l-4.17-3Z" id="path31144-2"/>
<path class="cls-2" d="M24.31,44.46l-.72-1.23A2.62,2.62,0,0,0,20,42.31l-4.32,2.58a2.74,2.74,0,0,0-1,3.67l1,1.85,6.19-1.58Z" id="path63663-9-6-1-3"/>
<path class="cls-2" d="M39.69,44.46l.71-1.23A2.63,2.63,0,0,1,44,42.31l4.32,2.58a2.73,2.73,0,0,1,1,3.67l-1,1.85L42,48.76Z" id="path66457-2-4-5-6"/>
<path class="cls-3" d="M23.63,47.06l.33-2.4,3-1.74V40.17h10.1v2.75l3,1.74.33,2.41,4.55.45c2.52,1.54,4.57,3.7,5.14,6.6A1.58,1.58,0,0,1,48.52,56H40.26L32,53l-8.26,3H15.48a1.58,1.58,0,0,1-1.54-1.88c.57-2.9,2.62-5.06,5.14-6.6Z" id="path561157-7"/>
<path class="cls-1" d="M40.26,56s-.17-4.19,4.66-8.48L40,44.67a11.76,11.76,0,0,1-16.06,0l-4.89,2.85C23.91,51.81,23.74,56,23.74,56Z" id="path34202-7-1-3"/>
<path class="cls-4" d="M20.84,27.79a19.6,19.6,0,0,0,1,5.44C23.66,37.85,27.52,42,32,42s8.34-4.09,10.19-8.72a19.53,19.53,0,0,0,1-5.44L32,25Z" id="path30474-6"/>
<path class="cls-2" d="M19.9,22.65A12,12,0,0,1,29,11.1H35A12,12,0,0,1,44.1,22.65L32,25.3Z" id="path31787-6"/>
<path class="cls-1" d="M30.1,10A1.07,1.07,0,0,0,29,11.1v7.49A4.06,4.06,0,0,1,25,22.65H19.9a.85.85,0,0,0-.85.86v3.42a.85.85,0,0,0,.85.86H44.1a.85.85,0,0,0,.85-.86V23.51a.85.85,0,0,0-.85-.86H39A4.06,4.06,0,0,1,35,18.59V11.1A1.07,1.07,0,0,0,33.9,10Z" id="rect25295-1"/>
<path class="cls-5" d="M27.47,24.19a1,1,0,1,0,1,1A1,1,0,0,0,27.47,24.19Z" id="path32731"/>
<path class="cls-5" d="M32,24.19a1,1,0,1,0,1,1A1,1,0,0,0,32,24.19Z" id="path32990"/>
<path class="cls-5" d="M36.53,24.19a1,1,0,1,0,1,1A1,1,0,0,0,36.53,24.19Z" id="path32992"/>
<path class="cls-5" d="M41.06,24.19a1,1,0,1,0,1,1A1,1,0,0,0,41.06,24.19Z" id="path32994"/>
<path class="cls-5" d="M22.94,24.19a1,1,0,1,0,1,1A1,1,0,0,0,22.94,24.19Z" id="path32996"/>
<path class="cls-5" d="M31,20.06a1,1,0,0,0,1,1h0a1,1,0,0,0,1-1h0a1,1,0,0,0-1-1h0a1,1,0,0,0-1,1Z" id="path33470"/>
<path class="cls-5" d="M31,15.07a1,1,0,1,0,1-1A1,1,0,0,0,31,15.07Z" id="path33472"/>
</g>
</svg>