<?xml version="1.0" ?>
<!-- Uploaded to: SVG Repo, www.svgrepo.com, Generator: SVG Repo Mixer Tools -->
<svg width="800px" height="800px" viewBox="0 0 64 64" xmlns="http://www.w3.org/2000/svg">
<defs>
<style>.cls-1{fill:#748a95;}.cls-2{fill:#ebb87f;}.cls-3{fill:#efc89d;}.cls-4{fill:#f0f4f7;}</style>
</defs>
<g id="Cyclops">
<path class="cls-1" d="M18.06,7a1,1,0,0,0-.89.74l-1.39,5.11a5.65,5.65,0,0,0,1.64,5.64l3.95,3.6a1,1,0,1,0,1.34-1.48l-1.89-1.73,3.11-2.36-.05-1.95,2,.38a1,1,0,0,0,.37-2h0l-5.37-1L19.05,7.61A1,1,0,0,0,18.06,7ZM45.94,7a1,1,0,0,0-1,.61L43.08,12l-7.4,1.39a1,1,0,1,0,.37,2h0l4.07-.76,0,1.95,3.11,2.36-2.46,2.25a1,1,0,0,0,1.35,1.48l4.51-4.12a5.65,5.65,0,0,0,1.64-5.64L46.83,7.74A1,1,0,0,0,45.94,7Z" id="path25788"/>
<path class="cls-2" d="M19.52,24.31S16,25,15,27.6a2.49,2.49,0,0,0,.88,2.48,7,7,0,0,0,4.48,1.67l3.08-4Z" id="path145675-5"/>
<path class="cls-2" d="M44.48,22.43S48,23.08,49,25.72a2.53,2.53,0,0,1-.88,2.48A7.41,7.41,0,0,1,44,29.88l-3.28-3.45Z" id="path145680-4"/>
<path class="cls-1" d="M22.19,46.19l-5-10.3c-.93-2-2.09-1.85-2.39.29a32.54,32.54,0,0,0-.32,5.34,33.81,33.81,0,0,0,1.78,9.27l4.89-1Z" id="path116892-4-6"/>
<path class="cls-1" d="M41.81,46.19l5-10.3c.93-2,2.09-1.85,2.39.29a32.54,32.54,0,0,1,.32,5.34,33.81,33.81,0,0,1-1.78,9.27l-4.89-1Z" id="path72041-9-5-9"/>
<path class="cls-3" d="M36.9,38.82v4.5l7.32,4.28c2.58,1.51,4.7,3.66,5.28,6.58A1.52,1.52,0,0,1,48,56H16a1.52,1.52,0,0,1-1.49-1.82c.58-2.92,2.7-5.07,5.28-6.58l7.32-4.28-.32-4.5Z" id="path123162-37"/>
<path class="cls-2" d="M26.78,38.81l.28,3.91a9.33,9.33,0,0,0,5.17,1.68A9.12,9.12,0,0,0,36.9,43V38.81Z" id="path233729"/>
<path class="cls-3" d="M43.29,32.72c-2,5.13-6.33,9.67-11.29,9.67s-9.25-4.54-11.29-9.67c-1-2.52-1.2-7-1.2-9.71a12.49,12.49,0,0,1,25,0C44.49,25.74,44.3,30.2,43.29,32.72Z" id="path25222-7-2-261"/>
<path class="cls-4" d="M40.06,25.3a8.49,8.49,0,0,1-16.12,0,3.08,3.08,0,0,1,0-1.9,8.49,8.49,0,0,1,16.12,0A3.24,3.24,0,0,1,40.06,25.3Z" id="path68751-4"/>
<path class="cls-1" d="M35.15,24.35A3.15,3.15,0,1,1,32,21.2,3.15,3.15,0,0,1,35.15,24.35Z" id="path68646-8-9-4"/>
<path class="cls-2" d="M23.35,50.24a1,1,0,0,0,0,2h5.1a1.3,1.3,0,0,1,1.12.65,1,1,0,0,0,1.36.37h0a1,1,0,0,0,.36-1.37,3.3,3.3,0,0,0-2.85-1.65Z" id="path131588-6-0"/>
<path class="cls-2" d="M35.55,50.24a3.3,3.3,0,0,0-2.85,1.65,1,1,0,1,0,1.73,1,1.3,1.3,0,0,1,1.12-.65h5.1a1,1,0,0,0,0-2Z" id="path132344-1-8"/>
<path class="cls-2" d="M28.81,45.18a1,1,0,0,0-.53,1.31h0l1,2.39a1,1,0,0,0,1.85-.78l-1-2.39A1,1,0,0,0,28.81,45.18Z" id="path133885-8"/>
<path class="cls-2" d="M35.19,45.18a1,1,0,0,0-1.31.53l-1,2.39a1,1,0,0,0,1.85.78l1-2.39a1,1,0,0,0-.53-1.31Z" id="path133967-5"/>
</g>
</svg>