<?xml version="1.0" encoding="iso-8859-1"?>
<!-- Uploaded to: SVG Repo, www.svgrepo.com, Generator: SVG Repo Mixer Tools -->
<svg height="800px" width="800px" version="1.1" id="Layer_1" xmlns="http://www.w3.org/2000/svg" xmlns:xlink="http://www.w3.org/1999/xlink" 
	 viewBox="0 0 512 512" xml:space="preserve">
<path style="fill:#FFF3DC;" d="M286.555,333.308l-27.954,6.38c-15.199,3.469-29.884-4.134-32.799-16.981l0,0
	c-2.915-12.847,7.044-26.073,22.243-29.542l27.954-6.38c15.199-3.469,38.735,1.772,41.651,14.619l0,0
	C320.564,314.25,301.755,329.839,286.555,333.308z"/>
<path style="fill:#E6CFA8;" d="M303.622,316.298l-27.954,6.38c-15.199,3.469-29.884-4.134-32.799-16.981l0,0
	c-0.853-3.76-0.597-7.548,0.563-11.119c-12.537,4.841-20.239,16.634-17.631,28.129c2.915,12.847,17.6,20.45,32.799,16.981
	l27.954-6.38c11.481-2.621,25.015-12.155,29.697-22.201C312.112,313.527,307.736,315.359,303.622,316.298z"/>
<path style="fill:#FFF3DC;" d="M216.665,125.299l-6.643,26.541c-3.612,14.431,3.291,28.61,15.422,31.669l0,0
	c12.129,3.058,24.891-6.161,28.503-20.593l6.643-26.541c3.612-14.431-0.864-37.006-12.993-40.065l0,0
	C235.466,93.251,220.277,110.867,216.665,125.299z"/>
<path style="fill:#E6CFA8;" d="M245.748,163.203L245.748,163.203c-12.129-3.058-19.034-17.237-15.422-31.669l6.643-26.541
	c0.672-2.683,1.745-5.475,3.122-8.225c-10.222,3.392-20.536,16.976-23.429,28.532l-6.643,26.541
	c-3.612,14.432,3.291,28.61,15.422,31.669l0,0c11.963,3.017,24.534-5.914,28.343-20.006
	C251.145,163.952,248.432,163.879,245.748,163.203z"/>
<path style="fill:#FFF3DC;" d="M324.976,39.712l-5.46,21.811c-2.969,11.86,2.705,23.51,12.673,26.023l0,0
	c9.967,2.513,20.454-5.063,23.422-16.922l5.46-21.811c2.969-11.86-0.709-30.411-10.677-32.924l0,0
	C340.426,13.378,327.944,27.854,324.976,39.712z"/>
<path style="fill:#E6CFA8;" d="M350.614,62.121L350.614,62.121c-9.967-2.513-15.641-14.165-12.673-26.024l4.823-19.267
	c-7.902,3.511-15.551,13.939-17.789,22.882l-5.46,21.811c-2.969,11.859,2.705,23.51,12.673,26.023l0,0
	c9.967,2.513,20.454-5.063,23.422-16.922l2.093-8.36C355.382,62.73,352.985,62.719,350.614,62.121z"/>
<path style="fill:#FFF3DC;" d="M360.694,324.762l-19.884,13.403c-10.812,7.287-14.622,20.573-8.511,29.675l0,0
	c6.112,9.102,19.831,10.572,30.644,3.285l19.884-13.403c10.812-7.287,21.125-24.622,15.013-33.724l0,0
	C391.728,314.897,371.505,317.474,360.694,324.762z"/>
<path style="fill:#E6CFA8;" d="M381.75,347.677c-10.812,7.287-24.532,5.817-30.644-3.285c-2.25-3.351-3.145-7.269-2.852-11.246
	l-7.446,5.019c-10.812,7.287-14.622,20.573-8.511,29.675c6.112,9.102,19.831,10.572,30.644,3.285l19.884-13.403
	c6.914-4.66,13.617-13.429,15.958-21.527L381.75,347.677z"/>
<path style="fill:#FFF3DC;" d="M399.189,203.637l-23.95,6.74c-13.023,3.664-26.07-2.286-29.143-13.29l0,0
	c-3.073-11.004,4.991-22.896,18.014-26.56l23.95-6.74c13.023-3.664,33.638-0.144,36.712,10.86l0,0
	C427.845,185.651,412.211,199.973,399.189,203.637z"/>
<path style="fill:#E6CFA8;" d="M414.514,187.964l-23.95,6.74c-13.023,3.664-26.07-2.286-29.143-13.29
	c-0.935-3.347-0.834-6.775,0.119-10.03c-11.49,4.416-18.309,15.444-15.444,25.703l0,0c3.073,11.004,16.121,16.955,29.143,13.29
	l23.95-6.74c9.536-2.683,20.462-11.081,24.428-19.707C420.615,185.72,417.497,187.124,414.514,187.964z"/>
<path style="fill:#FFF3DC;" d="M78.654,255.1l-0.3,29.116c-0.163,15.831,10.49,28.777,23.794,28.914l0,0
	c13.304,0.138,24.221-12.585,24.384-28.416l0.3-29.116c0.163-15.831-10.058-38.069-23.362-38.207l0,0
	C90.165,217.255,78.816,239.269,78.654,255.1z"/>
<path style="fill:#E6CFA8;" d="M121.979,283.247L121.979,283.247c-13.304-0.138-23.957-13.083-23.794-28.914l0.3-29.116
	c0.023-2.271,0.283-4.669,0.74-7.109c-11.387,3.863-20.427,22.879-20.572,36.994l-0.3,29.116
	c-0.163,15.831,10.491,28.777,23.794,28.914s24.221-12.585,24.384-28.416l0.02-1.942
	C125.069,283.096,123.541,283.263,121.979,283.247z"/>
<path style="fill:#A9CF54;" d="M490.538,398.723v0.272c-0.157,5.214-4.556,8.756-9.759,9.007
	c-64.554,3.124-119.411,8.286-166.452,14.67C153.495,444.5,83.999,480.611,30.72,498.709c-1.818,0.616-3.688,0.92-5.528,0.92
	c-5.528,0-10.867-2.664-14.2-7.367c-6.75-9.519-2.1-21.974,8.568-26.655c22.8-10,45.547-18.756,68.033-26.415
	c183.045-62.37,349.32-52.172,394.156-49.748C486.693,389.716,490.538,393.791,490.538,398.723z"/>
<path style="fill:#92B83D;" d="M314.326,422.672C153.495,444.5,83.999,480.611,30.72,498.709c-1.818,0.616-3.688,0.92-5.528,0.92
	c-5.528,0-10.867-2.664-14.2-7.367c-6.75-9.519-2.1-21.974,8.568-26.655c22.8-10,45.547-18.756,68.033-26.415
	c10.94,6.374,25.872,9.247,46.153,4.284C181.656,431.752,248.675,421.742,314.326,422.672z"/>
<path style="fill:#A9CF54;" d="M504.163,19.722c0-6.564-5.322-11.886-11.886-11.886c-2.335,0-4.507,0.683-6.343,1.846l0,0h-0.001
	c-0.224,0.142-0.441,0.29-0.654,0.446C194.606,207.806,15.694,468.583,15.694,468.583l0.013,0.016
	c-4.772,3.613-7.87,9.324-7.87,15.772c0,10.932,8.862,19.792,19.792,19.792c5.407,0,10.303-2.173,13.875-5.687l0.002,0.003
	c0.004-0.005,0.008-0.01,0.011-0.017c1.422-1.401,2.631-3.015,3.579-4.791C266.672,197.453,497.546,30.367,497.546,30.367
	l-0.001-0.001C501.463,28.422,504.163,24.392,504.163,19.722z"/>
<path style="fill:#92B83D;" d="M23.544,487.929l-0.013-0.016c0,0,184.993-282.641,469.206-480.054
	c-0.154-0.006-0.304-0.023-0.459-0.023c-2.335,0-4.507,0.683-6.343,1.846h-0.001c-0.224,0.142-0.441,0.29-0.654,0.446
	C194.606,207.806,15.694,468.583,15.694,468.583l0.013,0.016c-4.772,3.613-7.87,9.324-7.87,15.772
	c0,6.564,3.208,12.364,8.127,15.965C16.834,495.287,19.621,490.899,23.544,487.929z"/>
<path d="M492.278,0c-3.727,0-7.371,1.06-10.521,3.053c-0.331,0.209-0.656,0.429-0.975,0.658
	c-50.453,34.317-100.318,72.401-149.234,113.926c1.577-6.845,3.375-14.474,5.186-21.799c4.24-0.12,8.475-1.353,12.348-3.67
	c6.89-4.123,12.04-11.282,14.132-19.64l5.46-21.811c3.677-14.689-0.869-38.519-16.362-42.426
	c-4.981-1.256-10.398-0.249-15.672,2.907c-8.729,5.223-16.65,16.167-19.265,26.61l-5.46,21.811
	c-3.118,12.453,1.163,24.85,9.86,31.432c-4.375,17.581-8.639,36.832-10.148,43.73c-28.244,24.649-56.15,50.449-83.647,77.335
	c0.834-6.335,1.859-13.385,3.052-20.221c4.836-0.156,9.668-1.574,14.095-4.223c8-4.787,13.986-13.118,16.423-22.854l6.643-26.541
	c4.306-17.203-0.83-45.065-18.679-49.568c-5.609-1.416-11.76-0.256-17.782,3.348c-10.266,6.144-19.588,19.031-22.668,31.338
	l-6.643,26.541c-3.863,15.43,2.008,30.767,13.428,37.889c-3.053,16.996-5.023,35.069-5.72,41.955
	c-4.394,4.4-8.78,8.82-13.152,13.275c-3.031,3.09-2.983,8.051,0.106,11.082c3.089,3.03,8.05,2.984,11.082-0.106
	c37.708-38.431,76.258-74.781,115.449-108.904c0.009-0.007,0.018-0.017,0.027-0.024C377.924,97.84,433.443,54.857,489.687,16.608
	c0.068-0.047,0.136-0.094,0.202-0.143c0.075-0.055,0.153-0.109,0.237-0.162c0.662-0.419,1.386-0.631,2.152-0.631
	c2.233,0,4.049,1.816,4.049,4.049c0,1.843-1.169,3.079-2.263,3.622c-0.453,0.226-0.881,0.492-1.278,0.795
	c-3.505,2.557-61.136,44.882-143.688,121.039c-18.4,16.974-38.966,36.502-61.158,58.44c-0.359,0.296-0.687,0.625-0.986,0.978
	c-34.844,34.485-73.654,74.882-114.349,120.659c-0.495,0.433-0.929,0.926-1.3,1.464c-29.516,33.252-60.008,69.324-90.685,108.009
	c-0.196,0.219-0.376,0.451-0.546,0.691c-13.738,17.338-27.512,35.193-41.252,53.56c-0.238,0.319-0.451,0.654-0.638,1.004
	c-0.555,1.041-1.259,1.992-2.095,2.83c-0.027,0.025-0.054,0.052-0.082,0.078c-2.252,2.216-5.228,3.437-8.378,3.437
	c-6.592,0.001-11.956-5.362-11.956-11.955c0-3.761,1.737-7.232,4.765-9.525c0.797-0.603,1.46-1.348,1.966-2.187
	c4.303-6.198,63.358-90.464,164.142-196.265c2.984-3.134,2.864-8.094-0.27-11.08c-3.134-2.983-8.095-2.863-11.08,0.27
	c-23.984,25.177-45.627,49.155-64.767,71.19v-16.964c5.565-1.637,10.649-4.973,14.785-9.793c5.805-6.765,9.055-15.722,9.153-25.22
	l0.3-29.116c0.191-18.673-11.836-45.924-31.118-46.125c-0.071,0-0.14-0.001-0.21-0.001c-19.277,0-32.335,27.301-32.523,45.467
	l-0.299,29.116c-0.178,17.246,10.193,31.836,24.239,35.776v35.115c-50.561,59.6-80.24,101.549-84.885,108.202
	C3.58,468.503,0,476.131,0,484.371C0,499.605,12.395,512,27.629,512c7.187,0,13.976-2.741,19.151-7.725
	c0.139-0.125,0.274-0.258,0.403-0.394c1.046-1.048,1.992-2.184,2.853-3.379c5.739-2.134,11.683-4.403,17.944-6.798
	c35.372-13.527,79.326-30.331,146.591-45.302l55.214,15.249c0.698,0.193,1.399,0.284,2.09,0.284c3.437,0,6.591-2.279,7.55-5.753
	c1.153-4.171-1.296-8.488-5.468-9.64l-25.644-7.082c12.599-2.39,25.558-4.639,38.799-6.722c4.276-0.673,7.197-4.683,6.524-8.959
	c-0.673-4.275-4.68-7.188-8.959-6.524c-25.005,3.932-49.073,8.442-71.536,13.406c-0.08,0.017-0.161,0.033-0.24,0.053
	c-66.174,14.612-110.159,30.938-145.457,44.417c7.916-10.34,15.833-20.504,23.74-30.498c66.394-22.625,137.629-38.015,211.79-45.728
	c84.615-8.806,149.559-5.266,177.29-3.754l2.154,0.116c0.774,0.043,1.38,0.681,1.38,1.454v0.097
	c-0.091,1.023-1.68,1.325-2.302,1.354c-57.87,2.808-111.909,7.474-160.614,13.871c-4.291,0.564-7.313,4.5-6.75,8.791
	c0.564,4.291,4.514,7.301,8.791,6.75c16.933-2.224,34.533-4.233,52.71-6.03l58.72,15.055c0.653,0.167,1.307,0.248,1.951,0.248
	c3.493,0,6.679-2.353,7.586-5.893c1.075-4.192-1.452-8.463-5.645-9.537l-15.422-3.954c19.29-1.441,39.115-2.661,59.43-3.647
	c9.545-0.458,16.946-7.595,17.217-16.6l0.003-0.506c0-9.092-7.114-16.605-16.201-17.104l-2.154-0.117
	c-20.937-1.141-62.814-3.42-118.304-0.815c1.933-0.848,3.817-1.857,5.606-3.063l19.884-13.403
	c13.216-8.907,26.463-30.707,17.139-44.592c-2.974-4.426-7.872-7.419-14.168-8.649c-10.524-2.059-24.449,0.937-33.865,7.285
	l0.001-0.001l-19.884,13.403c-12.413,8.366-17.656,23.071-13.377,35.087l-24.98,18.805c-66.09,7.01-129.909,20.021-190.122,38.76
	c24.674-30.456,49.134-59.175,72.961-86.049c6.134-1.298,22.093-4.656,38.22-7.904c2.401,5.016,6.273,9.338,11.293,12.497
	c5.743,3.614,12.63,5.493,19.729,5.493c3.017,0,6.072-0.34,9.093-1.029l27.954-6.378c17.547-4.004,41.252-22.51,36.993-41.28
	c-1.305-5.75-5.156-10.777-11.132-14.539c-10.363-6.52-26.769-8.984-39.904-5.986l-27.954,6.379
	c-15.743,3.593-27.028,15.786-28.64,29.367c-6.201,1.248-12.377,2.512-18.003,3.675c34.419-38.032,67.245-72.036,97.158-101.678
	c6.693-1.349,26.04-5.356,45.142-10.318c2.343,3.488,5.548,6.446,9.442,8.634c4.805,2.701,10.384,4.085,16.113,4.085
	c3.273,0,6.595-0.452,9.848-1.368l23.95-6.74c15.429-4.342,35.665-21.967,31.008-38.641c-1.451-5.197-5.17-9.602-10.754-12.74
	c-9.479-5.33-24.131-6.79-35.63-3.555l-23.948,6.74c-14.257,4.011-23.918,15.91-24.35,28.506c-6.751,1.746-13.56,3.378-19.803,4.812
	c14.83-14.356,28.785-27.508,41.664-39.394C439.806,82.801,496.222,41.053,501.706,37.032C508.075,33.569,512,27.005,512,19.722
	C512,8.848,503.152,0,492.278,0z M327.119,63.426l5.46-21.811c1.579-6.304,7.01-13.915,12.109-16.967
	c1.556-0.932,2.975-1.366,3.791-1.158c3.57,0.9,7.526,13.29,4.99,23.421l-5.46,21.811c-1.068,4.265-3.537,7.842-6.786,9.867
	c1.209-4.332,2.335-8.035,3.299-10.698c1.473-4.07-0.631-8.563-4.701-10.035c-4.073-1.477-8.563,0.632-10.035,4.701
	c-0.848,2.344-1.799,5.377-2.811,8.868C326.425,68.956,326.426,66.19,327.119,63.426z M217.622,153.744l6.643-26.541
	c2.049-8.186,8.863-17.715,15.514-21.695c1.874-1.121,3.591-1.709,4.953-1.709c0.339,0,0.655,0.037,0.947,0.11
	c5.682,1.434,10.508,17.779,7.307,30.563l-6.643,26.541c-1.435,5.73-4.812,10.546-9.266,13.212
	c-0.744,0.445-1.642,0.888-2.644,1.252c0.828-3.274,1.702-6.227,2.621-8.681c1.516-4.054-0.541-8.569-4.593-10.085
	c-4.055-1.517-8.569,0.541-10.085,4.593c-0.948,2.533-1.847,5.479-2.697,8.701C217.035,165.738,216.107,159.797,217.622,153.744z
	 M86.19,284.298l0.299-29.116c0.136-13.203,9.57-29.954,16.85-29.954c0.017,0,0.032,0,0.048,0.001
	c6.991,0.072,15.742,17.057,15.608,30.29l-0.3,29.116c-0.06,5.815-1.969,11.204-5.375,15.173c-0.893,1.042-1.868,1.927-2.891,2.684
	v-16.388c0-4.329-3.508-7.837-7.837-7.837s-7.837,3.508-7.837,7.837v16.748C89.596,299.317,86.107,292.318,86.19,284.298z
	 M328.876,382.814l4.963-3.737c1.839,1.216,3.861,2.188,6.009,2.928C336.243,382.251,332.575,382.525,328.876,382.814z
	 M346.286,344.664l19.884-13.402c0-0.001,0.001-0.001,0.001-0.001c4.797-3.234,12.04-5.259,18.045-5.259
	c1.438,0,2.806,0.116,4.05,0.361c2.062,0.403,3.58,1.135,4.164,2.006c2.528,3.764-4.063,16.909-12.887,22.856l-19.885,13.403
	c-3.418,2.303-7.307,3.434-10.957,3.263l7.411-5.579c3.459-2.603,4.151-7.516,1.547-10.975c-2.605-3.458-7.518-4.151-10.975-1.547
	l-8.14,6.127C339.278,351.798,342.02,347.538,346.286,344.664z M249.789,300.803l27.954-6.378c2.535-0.579,5.338-0.854,8.212-0.854
	c7.278,0,14.992,1.764,19.857,4.824c1.659,1.045,3.734,2.716,4.194,4.743c1.59,7.007-12.537,19.641-25.195,22.529l-27.954,6.38
	c-6.105,1.391-12.298,0.5-16.987-2.45c-0.977-0.614-2.061-1.447-3.075-2.505c7.69-1.483,14.545-2.74,19.272-3.479
	c4.277-0.67,7.2-4.679,6.532-8.954c-0.67-4.277-4.673-7.206-8.954-6.532c-4.715,0.738-11.36,1.949-18.799,3.376
	C237.473,306.511,242.917,302.373,249.789,300.803z M366.234,178.07l23.948-6.74c2.679-0.754,5.743-1.115,8.842-1.115
	c5.506,0,11.119,1.141,14.863,3.245c1.07,0.602,2.93,1.831,3.337,3.294c1.366,4.888-9.4,16.311-20.157,19.338l-23.95,6.74
	c-4.845,1.365-9.819,0.937-13.726-1.141c3.483-1.062,6.8-2.14,9.851-3.221c4.078-1.446,6.214-5.926,4.768-10.005
	c-1.447-4.077-5.919-6.211-10.005-4.768c-2.817,0.999-5.898,1.999-9.149,2.99C356.971,182.834,361.078,179.521,366.234,178.07z"/>
</svg>