<?xml version="1.0" encoding="iso-8859-1"?>
<!-- Uploaded to: SVG Repo, www.svgrepo.com, Generator: SVG Repo Mixer Tools -->
<svg height="800px" width="800px" version="1.1" id="Layer_1" xmlns="http://www.w3.org/2000/svg" xmlns:xlink="http://www.w3.org/1999/xlink" 
	 viewBox="0 0 485.056 485.056" xml:space="preserve">
<g>
	<path style="fill:#75B35C;" d="M182.63,181.887c-26.233-47.53-86.392-16.491-62.862,32.432c0.346,0.72,0.704,1.438,1.073,2.154
		c13.29,25.759,37.667,41.148,60.98,40.983c13.644-18.904,15.232-47.688,1.942-73.447
		C183.394,183.294,183.017,182.586,182.63,181.887z"/>
	<path style="fill:#75B35C;" d="M269.497,236.51c54.277,1.135,54.758,68.828,0.503,70.733c-0.799,0.028-1.601,0.045-2.405,0.05
		c-28.984,0.206-53.94-14.226-64.631-34.943c10.395-20.868,35.144-35.652,64.128-35.858
		C267.897,236.488,268.698,236.492,269.497,236.51z"/>
	<path style="fill:#75B35C;" d="M109.474,283.155c-33.017-46.301-91.881-6.762-61.508,41.313c0.446,0.708,0.905,1.412,1.376,2.111
		c16.929,25.204,44.147,38.283,68.385,35.306c11.922-21.312,10.109-51.455-6.82-76.658
		C110.438,284.526,109.96,283.836,109.474,283.155z"/>
	<path style="fill:#75B35C;" d="M217.429,351.21c55.805,10.931,44.128,80.873-12.202,73.083c-0.829-0.114-1.66-0.242-2.491-0.38
		c-29.947-4.999-53.104-24.381-60.411-47.682c14.48-19.664,42.677-30.471,72.624-25.47C215.782,350.9,216.608,351.05,217.429,351.21
		z"/>
	<path style="fill:#75B35C;" d="M271.984,91.89c-15.217-48.144-75.758-30.858-63.259,18.063c0.184,0.72,0.379,1.44,0.584,2.16
		c7.401,25.922,26.812,44.418,48.1,48.538c15.904-14.738,22.622-40.695,15.221-66.618C272.422,93.313,272.207,92.599,271.984,91.89z
		"/>
	<path style="fill:#75B35C;" d="M340.754,148.416c49.938,7.456,42.387,69.964-7.891,65.313c-0.74-0.069-1.482-0.147-2.225-0.237
		c-26.763-3.233-48.082-19.494-55.498-39.87c12.055-18.023,36.632-28.739,63.395-25.505
		C339.28,148.206,340.019,148.306,340.754,148.416z"/>
</g>
<path style="fill:#95E675;" d="M72.489,451.633c0,0,0.21-0.547,0.617-1.608c0.216-0.554,0.484-1.243,0.803-2.061
	c0.31-0.774,0.67-1.671,1.077-2.685c1.64-4.034,4.053-9.876,7.287-17.176c3.207-7.32,7.248-16.098,12.044-26.068
	c4.787-9.975,10.42-21.091,16.738-33.111c6.4-11.975,13.43-24.888,21.308-38.283c7.773-13.454,16.402-27.381,25.52-41.651
	c2.322-3.54,4.663-7.11,7.022-10.707c1.181-1.796,2.367-3.598,3.557-5.406c1.222-1.787,2.448-3.58,3.678-5.379
	c2.459-3.595,4.933-7.212,7.421-10.848c2.523-3.611,5.122-7.195,7.697-10.817c10.281-14.498,21.279-28.828,32.453-43
	c2.798-3.54,5.707-6.994,8.553-10.491c2.871-3.475,5.688-6.988,8.593-10.417c2.935-3.405,5.864-6.803,8.785-10.192
	c2.938-3.372,5.782-6.804,8.807-10.06c2.984-3.288,5.957-6.565,8.916-9.824c1.479-1.629,2.954-3.254,4.425-4.874
	c1.474-1.618,3.014-3.169,4.51-4.749c3.01-3.144,6.003-6.268,8.974-9.371c1.485-1.55,2.965-3.095,4.439-4.634
	c1.515-1.501,3.022-2.995,4.525-4.484c3.009-2.971,5.993-5.917,8.949-8.836c1.478-1.458,2.947-2.911,4.411-4.354
	s2.992-2.809,4.471-4.205c2.978-2.773,5.924-5.517,8.835-8.228c1.455-1.354,2.901-2.701,4.338-4.039
	c0.719-0.669,1.434-1.336,2.148-1.999c0.733-0.644,1.463-1.285,2.192-1.924c5.83-5.105,11.502-10.071,16.987-14.876
	c5.587-4.686,11.069-9.115,16.284-13.416c5.166-4.359,10.372-8.229,15.254-11.99c2.445-1.874,4.827-3.699,7.142-5.475
	c2.327-1.76,4.532-3.539,6.796-5.099c4.472-3.189,8.657-6.173,12.527-8.932c1.934-1.379,3.79-2.701,5.563-3.964
	c0.888-0.629,1.755-1.244,2.602-1.844c0.866-0.572,1.711-1.13,2.534-1.673c13.157-8.682,20.676-13.643,20.676-13.643
	c4.032-2.66,9.457-1.549,12.119,2.483c2.6,3.94,1.597,9.212-2.213,11.932l-0.28,0.199c0,0-7.166,5.104-19.705,14.034
	c-0.784,0.558-1.587,1.13-2.413,1.717c-0.805,0.615-1.63,1.245-2.475,1.891c-1.687,1.295-3.45,2.651-5.29,4.064
	c-3.677,2.824-7.654,5.878-11.904,9.14c-2.151,1.595-4.243,3.411-6.449,5.208c-2.196,1.81-4.455,3.674-6.773,5.586
	c-4.628,3.833-9.561,7.775-14.448,12.209c-4.933,4.375-10.117,8.874-15.395,13.628c-5.176,4.868-10.526,9.901-16.026,15.075
	c-0.687,0.648-1.375,1.297-2.067,1.948c-0.672,0.672-1.347,1.347-2.023,2.024c-1.353,1.353-2.714,2.714-4.084,4.084
	c-2.739,2.739-5.511,5.511-8.314,8.313c-1.392,1.411-2.83,2.788-4.205,4.244c-1.374,1.457-2.756,2.922-4.143,4.394
	c-2.776,2.943-5.577,5.912-8.402,8.907c-1.409,1.499-2.825,3.005-4.246,4.516c-1.381,1.549-2.768,3.104-4.159,4.666
	c-2.783,3.12-5.586,6.264-8.406,9.426c-1.401,1.588-2.843,3.147-4.222,4.774c-1.375,1.628-2.754,3.261-4.137,4.898
	c-2.765,3.272-5.543,6.56-8.332,9.862c-2.828,3.265-5.478,6.709-8.218,10.09c-2.722,3.394-5.452,6.799-8.189,10.21
	c-2.707,3.433-5.325,6.951-7.996,10.428c-2.646,3.498-5.353,6.952-7.951,10.491c-10.373,14.169-20.564,28.465-30.052,42.91
	c-2.378,3.605-4.746,7.196-7.103,10.769c-2.29,3.617-4.568,7.216-6.832,10.793c-1.132,1.788-2.261,3.571-3.385,5.347
	c-1.093,1.797-2.182,3.588-3.266,5.372c-2.165,3.571-4.315,7.117-6.447,10.633c-8.355,14.167-16.245,27.967-23.312,41.273
	c-7.172,13.248-13.528,25.989-19.303,37.777c-5.69,11.829-10.74,22.741-14.999,32.488c-4.266,9.741-7.837,18.283-10.632,25.337
	c-2.831,7.049-4.892,12.602-6.263,16.349c-0.65,1.825-1.148,3.225-1.484,4.168c-0.331,0.964-0.503,1.462-0.503,1.462l-0.06,0.174
	c-3.39,9.858-14.13,15.102-23.988,11.711c-9.858-3.39-15.102-14.13-11.711-23.988C72.326,452.074,72.42,451.815,72.489,451.633z"/>
<path d="M450.564,7.43c-2.431-3.685-6.152-6.203-10.477-7.088c-4.326-0.886-8.737-0.036-12.422,2.397l-23.214,15.32
	c-0.071,0.047-0.141,0.094-0.211,0.144l-20.659,14.718c-1.741,1.202-3.409,2.487-5.023,3.731c-0.659,0.508-1.323,1.021-2.041,1.563
	L369.36,43.7c-1.023,0.789-2.061,1.582-3.111,2.383c-4.028,3.08-8.193,6.264-12.345,9.767c-1.798,1.484-3.631,2.984-5.486,4.504
	c-3.519,2.881-7.158,5.862-10.845,8.953c-0.043,0.036-0.085,0.071-0.128,0.108l-19.187,16.809c-0.058,0.05-0.115,0.102-0.171,0.153
	l-15.359,14.302c-0.514,0.484-1.033,0.965-1.553,1.446c-1.021,0.944-2.043,1.894-3.043,2.879l-14.878,14.704
	c0.509-9.155-0.512-18.596-3.144-27.814c-0.226-0.789-0.461-1.572-0.707-2.348c-8.99-28.443-32.752-37.883-51.579-32.507
	c-18.827,5.375-34.024,25.938-26.64,54.84c0.201,0.79,0.416,1.581,0.642,2.371c6.425,22.498,21.664,40.83,40.385,49.544
	c-0.81,0.943-1.619,1.888-2.463,2.855l-8.826,10.241c-1.923,2.27-3.82,4.589-5.652,6.831c-0.998,1.22-1.997,2.443-3.041,3.705
	c-0.997,1.225-2.003,2.447-3.009,3.667c-1.846,2.242-3.756,4.562-5.618,6.917c-4.765,6.043-9.095,11.607-13.11,16.846
	c-0.84-11.618-4.121-23.38-9.814-34.413c-0.404-0.78-0.816-1.554-1.236-2.316c-6.009-10.886-14.232-19.03-23.782-23.553
	c-2.411-1.142-5.239-0.971-7.492,0.457c-2.253,1.425-3.62,3.908-3.62,6.574v0.278c0,3.718,2.608,6.827,6.094,7.599
	c5.906,3.276,11.125,8.826,15.175,16.164c0.351,0.635,0.693,1.277,1.029,1.928c8.738,16.937,10.696,35.757,5.431,51.834
	c-0.196,0.275-0.39,0.548-0.585,0.822l-23.413-45.381c-1.971-3.82-6.663-5.318-10.484-3.347c-3.82,1.971-5.318,6.665-3.347,10.484
	l23.594,45.733c-16.248-4.668-31.319-17.437-40.287-34.817c-0.335-0.65-0.66-1.303-0.974-1.956
	c-9.202-19.133-3.145-33.066,5.592-39.726c3.417-2.606,4.076-7.489,1.471-10.907c-2.606-3.42-7.489-4.076-10.907-1.471
	c-12.991,9.903-23.453,31.258-10.182,58.85c0.378,0.785,0.768,1.57,1.17,2.348c11.437,22.165,30.532,37.847,51.711,43.182
	l-3.595,5.256c-0.026,0.038-0.052,0.077-0.077,0.117l-10.637,16.199c-7.546,11.812-13.9,22.045-19.512,31.43
	c-2.194-12.236-7.063-24.341-14.448-35.335c-0.511-0.762-1.032-1.514-1.559-2.252c-8.815-12.36-20.064-20.291-32.534-22.933
	c-11.446-2.423-23.049-0.204-32.667,6.257c-9.619,6.46-16.064,16.36-18.147,27.874c-2.269,12.544,0.817,25.957,8.927,38.794
	c0.484,0.767,0.982,1.53,1.493,2.29c14.573,21.696,36.388,35.696,59.086,38.592c-3.152,6.047-6.111,11.825-8.797,17.198
	c-1.922,3.843-0.366,8.517,3.479,10.441c3.844,1.921,8.519,0.364,10.441-3.48c3.259-6.518,6.912-13.627,10.831-21.082
	c1.151-2.153,2.361-4.407,3.602-6.709c0.004-0.006,0.009-0.012,0.012-0.018c2.478-4.587,4.688-8.634,6.8-12.446
	c0.476-0.86,0.957-1.723,1.444-2.594c0.287-0.513,0.573-1.024,0.857-1.532c0.002-0.004,0.004-0.007,0.005-0.011
	c2.681-4.781,5.502-9.716,8.461-14.746c6.976-12.073,15.027-25.213,25.288-41.277l10.535-16.042l10.542-15.412
	c0.002-0.004,0.005-0.006,0.007-0.01l0.465-0.68c1.626-2.328,3.286-4.645,4.949-6.968c0.904-1.262,1.808-2.526,2.716-3.801
	c0.456-0.643,0.917-1.284,1.377-1.926l0.61-0.849c0.022-0.031,0.037-0.064,0.058-0.094c8.384-11.702,17.805-24.134,30.168-39.812
	c1.759-2.225,3.618-4.483,5.417-6.666c1.025-1.245,2.051-2.491,3.03-3.694c1.023-1.236,2.039-2.48,3.054-3.721
	c1.791-2.191,3.643-4.455,5.435-6.57l8.757-10.161c0.911-1.046,1.814-2.096,2.714-3.147c2.021-2.356,3.93-4.58,5.987-6.795
	l1.191-1.311c0.023-0.026,0.05-0.048,0.074-0.074l12.087-13.316l0.237-0.253c0.01-0.011,0.017-0.023,0.027-0.033
	c0.817-0.886,1.646-1.756,2.479-2.621c0.552-0.572,1.101-1.144,1.615-1.688l13.341-13.93l17.801-17.592
	c0.878-0.867,1.783-1.702,2.684-2.537c0.557-0.516,1.114-1.033,1.624-1.514l13.177-12.269l21.085-18.583
	c3.595-3.014,7.178-5.948,10.642-8.784c1.871-1.532,3.717-3.042,5.596-4.594c3.932-3.318,7.946-6.386,11.828-9.353
	c1.065-0.814,2.118-1.619,3.141-2.408l7.103-5.445c0.714-0.54,1.415-1.081,2.112-1.618c1.536-1.182,2.987-2.301,4.405-3.277
	c0.034-0.023,0.07-0.048,0.104-0.072l19.544-13.928l24.124-15.97c0.223-0.146,0.467-0.193,0.725-0.14
	c0.26,0.053,0.465,0.193,0.612,0.415c0.283,0.428,0.175,1.017-0.238,1.311l-22.384,15.941c-0.076,0.054-0.151,0.11-0.224,0.166
	L395.09,48.499c-1.66,1.233-3.244,2.546-4.777,3.82c-0.624,0.519-1.254,1.041-1.932,1.593l-6.784,5.596
	c-0.967,0.8-1.945,1.603-2.934,2.416c-3.824,3.144-7.78,6.394-11.714,9.963c-1.748,1.549-3.525,3.113-5.328,4.699
	c-3.282,2.889-6.677,5.875-10.113,8.97c-0.042,0.036-0.082,0.075-0.124,0.113l-18.096,17.024c-0.059,0.054-0.117,0.112-0.173,0.167
	l-14.451,14.453c-0.478,0.484-0.962,0.964-1.446,1.445c-0.967,0.962-1.936,1.926-2.882,2.928l-16.8,17.828
	c-0.045,0.049-0.092,0.099-0.136,0.148l-12.594,14.125c-0.481,0.545-0.967,1.087-1.453,1.63c-0.963,1.074-1.929,2.151-2.876,3.269
	l-12.404,14.685c-2.069,2.389-4.032,4.85-5.93,7.229c-0.814,1.019-1.629,2.041-2.478,3.089l-8.228,10.259
	c-1.787,2.267-3.544,4.579-5.242,6.816c-0.935,1.23-1.872,2.462-2.851,3.737c-0.942,1.245-1.89,2.484-2.84,3.723
	c-1.704,2.224-3.464,4.524-5.182,6.863c-12.647,17.275-21.985,30.609-30.269,43.223l-6.318,9.582
	c-0.071,0.102-0.14,0.207-0.206,0.313l-0.576,0.875c-0.026,0.04-0.053,0.081-0.079,0.121l-10.217,16.138
	c-0.026,0.04-0.05,0.081-0.075,0.12l-9.767,16.096c-9.602,16.279-17.063,29.491-23.452,41.52
	c-5.754,10.628-10.967,20.903-15.559,30.166c-0.02,0.038-0.038,0.077-0.058,0.115c-1.337,2.697-2.629,5.321-3.855,7.828
	c-5.864,12.193-10.951,23.21-15.114,32.738c-4.158,9.496-7.772,18.107-10.724,25.561c-2.879,7.167-5.002,12.891-6.373,16.637
	l-2.074,5.884c-1.99,5.785-8.311,8.873-14.098,6.884c-5.785-1.99-8.872-8.314-6.884-14.096c0.042-0.121,0.104-0.289,0.134-0.368
	l2.442-6.213c1.531-3.764,3.941-9.616,7.207-16.984c0.714-1.63,1.476-3.341,2.27-5.112c1.761-3.92,0.011-8.526-3.909-10.287
	c-3.923-1.763-8.528-0.01-10.287,3.91c-0.817,1.818-1.597,3.574-2.316,5.214c-3.34,7.535-5.812,13.538-7.396,17.433l-2.554,6.497
	c-0.093,0.245-0.22,0.594-0.307,0.845c-2.316,6.735-1.871,13.966,1.254,20.365c3.124,6.399,8.553,11.199,15.287,13.514
	c2.86,0.983,5.775,1.45,8.644,1.45c11.069,0,21.437-6.953,25.234-17.995l1.993-5.654c1.312-3.585,3.379-9.158,6.191-16.158
	c2.898-7.315,6.44-15.754,10.528-25.088c2.982-6.825,6.455-14.443,10.346-22.705c12.445,17.523,33.119,30.133,57.076,34.132
	c0.904,0.151,1.806,0.288,2.706,0.413c3.271,0.453,6.469,0.677,9.578,0.677c11.185,0,21.23-2.907,29.434-8.581
	c9.625-6.655,15.975-16.615,17.883-28.044c1.907-11.429-0.862-22.911-7.802-32.332c-7.561-10.263-19.43-17.23-34.328-20.148
	c-0.893-0.175-1.792-0.337-2.695-0.488c-16.088-2.689-32.178-1.173-46.363,3.996c5.906-10.978,12.747-23.031,21.301-37.538
	l8.538-14.072l4.629-7.341c14.389,16.688,37.705,26.949,62.671,26.949c0.215,0,0.431-0.001,0.648-0.001
	c0.878-0.006,1.754-0.023,2.619-0.055c14.573-0.513,26.894-5.328,35.63-13.928c8.029-7.904,12.406-18.402,12.327-29.56
	c-0.078-11.158-4.606-21.593-12.745-29.383c-8.856-8.474-21.242-13.115-35.818-13.42c-0.871-0.02-1.743-0.023-2.63-0.02
	c-8.676,0.063-17.105,1.327-25.05,3.666c1.883-2.603,3.837-5.289,5.886-8.088c1.617-2.203,3.33-4.439,4.987-6.603
	c0.969-1.266,1.938-2.532,2.862-3.753c0.959-1.249,1.912-2.502,2.865-3.757c1.657-2.182,3.372-4.438,5.031-6.544l8.163-10.178
	c0.848-1.046,1.688-2.099,2.527-3.15c0.159-0.201,0.313-0.389,0.472-0.588c11.584,16.963,31.644,28.688,54.922,31.5
	c0.814,0.099,1.628,0.184,2.445,0.26c2.102,0.195,4.115,0.286,6.045,0.286c15.238,0,25.141-5.672,30.959-10.76
	c7.958-6.963,12.77-16.988,13.203-27.501c0.177-4.294-3.162-7.919-7.456-8.095c-4.295-0.147-7.918,3.162-8.095,7.456
	c-0.26,6.363-3.066,12.197-7.899,16.426c-6.108,5.343-14.86,7.655-25.318,6.691c-0.667-0.061-1.337-0.132-2.013-0.215
	c-17.423-2.105-32.905-10.6-42.251-22.592l46.226,5.586c0.316,0.037,0.632,0.056,0.943,0.056c3.881,0,7.238-2.9,7.716-6.849
	c0.515-4.267-2.526-8.143-6.793-8.66l-44.36-5.36c0.624-0.718,1.251-1.434,1.884-2.139c0.484-0.542,0.968-1.081,1.425-1.599
	c0.028-0.032,0.06-0.067,0.09-0.099l0.131-0.147c11.657-7.032,26.175-9.914,41.017-8.12c0.67,0.081,1.336,0.171,2.005,0.271
	c5.367,0.801,10.125,2.365,14.137,4.647c3.735,2.124,8.488,0.821,10.612-2.916c2.126-3.736,0.819-8.488-2.916-10.612
	c-5.69-3.236-12.262-5.428-19.531-6.513c-0.807-0.121-1.619-0.229-2.44-0.33c-7.266-0.876-14.49-0.819-21.476,0.108l7.665-8.133
	c0.828-0.877,1.682-1.723,2.53-2.566c0.52-0.518,1.041-1.034,1.52-1.519l14.341-14.348l17.946-16.881
	c3.347-3.015,6.685-5.953,9.916-8.793c1.818-1.599,3.611-3.176,5.439-4.798c3.718-3.373,7.524-6.501,11.204-9.524
	c1.005-0.825,1.998-1.642,2.968-2.445l6.733-5.554c0.677-0.551,1.344-1.104,2.005-1.653c1.453-1.206,2.827-2.344,4.165-3.337
	c0.036-0.025,0.07-0.053,0.105-0.078l19.549-15.005l22.299-15.88C453.647,24.791,455.484,14.885,450.564,7.43z M55.804,322.241
	c-0.431-0.642-0.85-1.285-1.257-1.929c-12.945-20.489-6.946-37.581,4.742-45.432c4.32-2.902,9.512-4.606,15.056-4.606
	c9.454,0,19.924,4.961,28.796,17.403c0.443,0.621,0.879,1.251,1.309,1.89c11.081,16.499,15.434,35.805,12.024,53.16
	c-0.254,0.454-0.499,0.898-0.751,1.349c-0.088,0.158-0.177,0.316-0.265,0.476l-30.069-44.769c-2.397-3.568-7.232-4.517-10.799-2.121
	c-3.567,2.397-4.517,7.231-2.121,10.799l30.526,45.447C85.14,351.214,67.455,339.587,55.804,322.241z M261.65,142.16l-1.086,1.197
	l-12.636-44.255c-1.18-4.131-5.485-6.524-9.619-5.345c-4.132,1.181-6.527,5.486-5.347,9.62l12.785,44.774
	c-13.313-7.326-24.118-21.237-28.954-38.175c-0.001-0.001-0.001-0.001-0.001-0.002c-0.185-0.65-0.361-1.299-0.526-1.947
	c-5.181-20.281,4.219-32.704,15.834-36.021c2.052-0.588,4.194-0.894,6.367-0.894c10.127,0,20.904,6.691,26.099,23.126
	c0.202,0.64,0.396,1.285,0.581,1.932C269.717,112.184,268.436,128.883,261.65,142.16z M213.669,358.436
	c0.758,0.128,1.514,0.264,2.262,0.411c0,0,0.001,0.001,0.002,0.001c23.783,4.659,32.09,20.756,29.771,34.643
	c-2.319,13.886-15.406,26.417-39.412,23.093c-0.758-0.105-1.516-0.221-2.275-0.347c-20.847-3.48-38.546-14.618-48.359-29.892
	l54.021,9.019c0.434,0.074,0.865,0.108,1.29,0.108c3.735,0,7.031-2.696,7.667-6.502c0.708-4.24-2.155-8.25-6.394-8.958
	l-53.979-9.012C172.651,359.696,193.068,354.997,213.669,358.436z M267.14,244.275c0.735-0.006,1.463,0,2.188,0.015
	c0.002,0,0.004,0,0.006,0c22.894,0.478,33.238,14.084,33.332,27.353c0.093,13.27-10.055,27.02-32.945,27.824
	c-0.725,0.025-1.455,0.04-2.182,0.045c-19.599,0.168-37.888-7.253-49.566-19.485l51.472-0.367c4.298-0.031,7.757-3.54,7.726-7.838
	c-0.031-4.28-3.509-7.726-7.781-7.726c-0.018,0-0.037,0-0.056,0l-49.664,0.353c1.041-1.561,2.079-3.123,3.133-4.681
	C234.528,249.889,250.23,244.395,267.14,244.275z"/>
</svg>